<svg width="36" height="29" viewBox="0 0 36 29" fill="none" xmlns="http://www.w3.org/2000/svg">
<path d="M11.0321 6.00668C10.726 4.99505 10.082 3.86116 8.09067 3.86116C6.09857 3.86116 4.87278 4.29026 4.87278 5.97553C4.87278 9.89821 15.8138 7.26284 15.8138 15.7211C15.8138 20.4101 11.9215 22.0642 7.99878 22.0642C2.45158 22.0642 0 18.3565 0 15.4758C0 14.9548 0.429104 14.5257 0.950103 14.5257H3.43205C3.95305 14.5257 4.22874 14.9852 4.32063 15.3527C4.44368 15.9353 4.71859 18.203 7.998 18.203C10.3881 18.203 11.3685 17.559 11.3685 15.7211C11.3685 11.4612 0.428325 14.1277 0.428325 5.97553C0.429104 2.39005 2.88068 0 8.15142 0C12.9315 0 15.475 2.84953 15.475 5.914C15.475 6.435 15.0459 6.86411 14.5249 6.86411H12.0118C11.4916 6.86411 11.1855 6.58842 11.0321 6.00668Z" fill="#F6F5F5"/>
<path d="M34.4249 4.36267H32.0037C31.4827 4.36267 31.0536 4.79177 31.0536 5.31277V17.8767L23.9441 5.09783C23.7907 4.82215 23.3616 4.36267 22.8406 4.36267H19.4997C18.9787 4.36267 18.5496 4.79177 18.5496 5.31277V15.3488C18.5472 15.3473 18.5449 15.3449 18.5418 15.3434C18.5418 15.3434 19.1671 22.1646 13.7632 23.7977C12.6114 24.1458 11.5811 24.7767 11.5811 25.9799C11.5811 27.1831 12.56 28.162 13.7632 28.162C18.4639 28.162 22.8118 23.4995 22.8679 18.8338C22.8679 18.8245 22.871 11.1972 22.871 11.1972L30.5014 24.7112C31.1758 25.8763 31.6353 25.8148 31.9725 25.8148H34.4241C34.9451 25.8148 35.3742 25.3857 35.3742 24.8647V5.31277C35.3742 4.79177 34.9459 4.36267 34.4249 4.36267Z" fill="#F6F5F5"/>
</svg>
