<svg width="200" height="62" viewBox="0 0 200 62" fill="none" xmlns="http://www.w3.org/2000/svg">
<path d="M41.2147 57.2791V56.4406C40.7333 57.2262 39.8764 57.7618 38.6623 57.7618C36.6997 57.7618 35.2714 56.3692 35.2714 53.7638V52.4439C35.2714 49.8743 36.6626 48.4817 38.6623 48.4817C39.9121 48.4817 40.7677 49.053 41.2147 49.8016V45.3936C41.2147 45.2336 41.3391 45.0908 41.5176 45.0908H42.2675C42.446 45.0908 42.5716 45.2336 42.5716 45.3936V57.2791C42.5716 57.4576 42.4473 57.5832 42.2675 57.5832H41.5176C41.3391 57.5832 41.2147 57.4576 41.2147 57.2791ZM41.2147 53.8895V52.2654C41.2147 50.6771 40.2863 49.6786 38.9122 49.6786C37.4839 49.6786 36.6283 50.7128 36.6283 52.3725V53.8895C36.6283 55.5492 37.5024 56.5662 38.9122 56.5662C40.3049 56.5662 41.2147 55.5307 41.2147 53.8895Z" fill="#1991C0"/>
<path d="M50.0308 56.5662C50.7093 56.5662 51.6721 56.4234 52.2077 55.0493C52.2434 54.9607 52.3148 54.8351 52.4933 54.8351H53.3146C53.4389 54.8351 53.5289 54.9237 53.5289 55.0493C53.5289 55.1207 53.4932 55.1921 53.4574 55.3164C52.8689 57.1733 51.2634 57.7618 50.0308 57.7618C47.9611 57.7618 46.3542 56.2991 46.3542 53.8008V52.4439C46.3542 49.9457 47.9426 48.4817 50.0123 48.4817C52.0648 48.4817 53.6532 49.9801 53.6532 52.4254V53.3181C53.6532 53.4967 53.5103 53.6038 53.3318 53.6038H47.7111V53.9966C47.7111 55.5836 48.7109 56.5662 50.0308 56.5662ZM52.3148 52.2826C52.3148 50.6228 51.3507 49.6772 50.0123 49.6772C48.6924 49.6772 47.7098 50.6228 47.7098 52.2826V52.5326H52.3135V52.2826H52.3148Z" fill="#1991C0"/>
<path d="M62.9874 57.2791V45.3936C62.9874 45.2336 63.1117 45.0908 63.2915 45.0908H64.0401C64.2001 45.0908 64.3443 45.2336 64.3443 45.3936V57.2791C64.3443 57.4576 64.2014 57.5832 64.0401 57.5832H63.2915C63.113 57.5832 62.9874 57.4576 62.9874 57.2791Z" fill="#1991C0"/>
<path d="M71.7675 48.4817C73.8201 48.4817 75.4084 49.9457 75.4084 52.4439V53.8008C75.4084 56.2991 73.8201 57.7618 71.7675 57.7618C69.6978 57.7618 68.1266 56.2991 68.1266 53.8008V52.4439C68.128 49.9457 69.6978 48.4817 71.7675 48.4817ZM71.7675 56.5662C73.1059 56.5662 74.07 55.6206 74.07 53.8895V52.3553C74.07 50.6242 73.1072 49.6786 71.7675 49.6786C70.4463 49.6786 69.4835 50.6242 69.4835 52.3553V53.8895C69.4835 55.6193 70.4477 56.5662 71.7675 56.5662Z" fill="#1991C0"/>
<path d="M78.675 55.3349C78.675 55.2807 78.6578 55.2093 78.675 55.1564C78.7107 55.0493 78.7821 54.9779 78.9064 54.9779H79.6735C79.8335 54.9779 79.8877 55.0493 79.942 55.1934C80.102 55.8534 80.709 56.6032 82.0474 56.6032C83.1901 56.6032 84.0814 56.229 84.0814 55.1762C84.0814 52.8552 78.8165 54.712 78.8165 50.9468C78.8165 49.1628 80.4406 48.4843 81.939 48.4843C84.6872 48.4843 85.0442 50.3755 85.1685 50.8582C85.1685 50.8754 85.1871 50.9296 85.1871 50.9825C85.1685 51.1254 85.0442 51.214 84.9371 51.214H84.17C84.01 51.214 83.9558 51.1426 83.9016 50.9825C83.7773 50.4297 83.4916 49.6442 81.9033 49.6442C81.1005 49.6442 80.1179 49.9298 80.1179 50.9111C80.1179 53.3379 85.3828 51.5182 85.3828 55.1577C85.3828 57.0674 83.8474 57.7631 82.0276 57.7631C79.9949 57.7618 78.8535 56.5834 78.675 55.3349Z" fill="#1991C0"/>
<path d="M104.124 57.3862C104.124 57.4933 104.036 57.5819 103.91 57.5819H103C102.84 57.5819 102.75 57.4933 102.715 57.3862L101.59 54.2452H96.1654L95.0598 57.3862C95.0069 57.5462 94.8998 57.5819 94.8099 57.5819H93.9172C93.7928 57.5819 93.7029 57.4933 93.7029 57.3862C93.7029 57.2976 93.7558 57.1719 93.8272 57.0119L98.0566 45.3764C98.1095 45.2164 98.1995 45.0908 98.378 45.0908H99.395C99.5736 45.0908 99.6635 45.2164 99.7164 45.3592L104.036 57.119C104.07 57.1891 104.124 57.3148 104.124 57.3862ZM101.143 53.0139L98.8594 46.6619L96.6283 53.0139H101.143Z" fill="#1991C0"/>
<path d="M107.372 57.279V48.9631C107.372 48.803 107.479 48.6602 107.658 48.6602H108.336C108.515 48.6602 108.658 48.803 108.658 48.9631V50.1586C109.051 49.3545 109.835 48.6589 111.156 48.6589H111.425C111.603 48.6589 111.729 48.8017 111.729 48.9617V49.6944C111.729 49.8729 111.604 49.9801 111.425 49.9801H111.156C109.372 49.9801 108.711 51.4785 108.711 52.9425V57.279C108.711 57.4576 108.568 57.5832 108.408 57.5832H107.658C107.479 57.5832 107.372 57.4576 107.372 57.279Z" fill="#1991C0"/>
<path d="M115.243 57.279V48.9631C115.243 48.803 115.35 48.6602 115.528 48.6602H116.207C116.385 48.6602 116.528 48.803 116.528 48.9631V50.1586C116.921 49.3545 117.705 48.6589 119.026 48.6589H119.295C119.473 48.6589 119.598 48.8017 119.598 48.9617V49.6944C119.598 49.8729 119.473 49.9801 119.295 49.9801H119.026C117.242 49.9801 116.581 51.4785 116.581 52.9425V57.279C116.581 57.4576 116.438 57.5832 116.278 57.5832H115.528C115.35 57.5832 115.243 57.4576 115.243 57.279Z" fill="#1991C0"/>
<path d="M126.147 48.4817C128.199 48.4817 129.788 49.9457 129.788 52.4439V53.8008C129.788 56.2991 128.199 57.7618 126.147 57.7618C124.077 57.7618 122.506 56.2991 122.506 53.8008V52.4439C122.506 49.9457 124.076 48.4817 126.147 48.4817ZM126.147 56.5662C127.485 56.5662 128.449 55.6206 128.449 53.8895V52.3553C128.449 50.6242 127.487 49.6786 126.147 49.6786C124.826 49.6786 123.863 50.6242 123.863 52.3553V53.8895C123.863 55.6193 124.826 56.5662 126.147 56.5662Z" fill="#1991C0"/>
<path d="M140.478 48.8559C140.478 48.9273 140.442 49.0517 140.389 49.1773L136.624 58.7602C136 60.3658 135.464 61.1513 133.643 61.1513H132.894C132.734 61.1513 132.609 61.027 132.609 60.8485V60.1886C132.609 60.01 132.733 59.8672 132.894 59.8672H133.59C134.733 59.8672 135.124 59.2972 135.41 58.5116L135.785 57.4761L132.484 49.213C132.413 49.0517 132.377 48.9445 132.377 48.8559C132.377 48.7488 132.466 48.6589 132.573 48.6589H133.483C133.59 48.6589 133.733 48.7303 133.804 48.9273L136.499 55.8507L139.069 48.8903C139.14 48.7131 139.248 48.6589 139.372 48.6589H140.282C140.406 48.6602 140.478 48.7488 140.478 48.8559Z" fill="#1991C0"/>
<path d="M146.652 48.4817C148.705 48.4817 150.293 49.9457 150.293 52.4439V53.8008C150.293 56.2991 148.705 57.7618 146.652 57.7618C144.583 57.7618 143.011 56.2991 143.011 53.8008V52.4439C143.011 49.9457 144.583 48.4817 146.652 48.4817ZM146.652 56.5662C147.991 56.5662 148.955 55.6206 148.955 53.8895V52.3553C148.955 50.6242 147.991 49.6786 146.652 49.6786C145.331 49.6786 144.368 50.6242 144.368 52.3553V53.8895C144.368 55.6193 145.331 56.5662 146.652 56.5662Z" fill="#1991C0"/>
<path d="M153.56 55.3349C153.56 55.2807 153.543 55.2093 153.56 55.1564C153.596 55.0493 153.667 54.9779 153.791 54.9779H154.558C154.718 54.9779 154.773 55.0493 154.827 55.1934C154.987 55.8534 155.594 56.6032 156.932 56.6032C158.074 56.6032 158.966 56.229 158.966 55.1762C158.966 52.8552 153.701 54.712 153.701 50.9468C153.701 49.1628 155.325 48.4843 156.824 48.4843C159.572 48.4843 159.929 50.3755 160.053 50.8582C160.053 50.8754 160.072 50.9296 160.072 50.9825C160.053 51.1254 159.929 51.214 159.822 51.214H159.054C158.894 51.214 158.839 51.1426 158.786 50.9825C158.661 50.4297 158.376 49.6442 156.788 49.6442C155.985 49.6442 155.003 49.9298 155.003 50.9111C155.003 53.3379 160.268 51.5182 160.268 55.1577C160.268 57.0674 158.734 57.7631 156.912 57.7631C154.88 57.7618 153.738 56.5834 153.56 55.3349Z" fill="#1991C0"/>
<path d="M11.8854 13.4694C8.58709 12.5463 5.98174 11.8189 5.98174 9.21623C5.98174 6.85289 7.32938 5.93242 10.7891 5.93242C14.3718 5.93242 15.0925 7.72443 15.3213 9.28632C15.3227 9.2969 15.324 9.30748 15.3266 9.31806C15.4933 10.097 16.017 10.544 16.7629 10.544H19.1685C19.966 10.544 20.6154 9.91319 20.6154 9.13688C20.6154 5.16404 17.6014 1.15417 10.8684 1.15417C4.41985 1.15417 0.720771 4.0928 0.720771 9.21623C0.720771 15.6873 5.90503 17.1434 10.0723 18.3138C13.696 19.3321 15.9165 20.078 15.9165 22.4877C15.9165 25.0639 14.3347 26.2132 10.7878 26.2132C6.08886 26.2132 5.298 23.1013 5.17632 21.7576C5.11417 21.1374 4.61558 20.4788 3.81149 20.4788H1.40716C0.618937 20.4774 0 21.0964 0 21.8846C0 25.5453 2.87383 30.9901 10.7891 30.9901C15.8107 30.9901 21.1774 28.7564 21.1774 22.4863C21.1774 16.0669 16.0249 14.6266 11.8854 13.4694Z" fill="#1991C0"/>
<path d="M32.0393 9.17255C25.4228 9.17255 24.5235 13.5064 24.2312 14.9123C24.1928 15.0657 24.136 15.3606 24.136 15.5114C24.136 16.211 24.6597 16.7188 25.3831 16.7188H27.9091C28.3191 16.7188 28.8626 16.5495 29.1311 15.7454C29.1364 15.7309 29.1404 15.7164 29.143 15.7018C29.3903 14.6425 29.7606 13.8318 32.038 13.8318C34.4516 13.8318 35.4818 14.8739 35.4818 17.3153V17.8734H31.837C26.1673 17.8734 23.2935 20.0873 23.2935 24.4516C23.2935 28.5461 25.8883 30.9914 30.2341 30.9914H30.8755C32.7521 30.9914 34.4026 30.3764 35.4884 29.3237C35.5559 30.0445 36.147 30.5907 36.889 30.5907H39.0539C39.8435 30.5907 40.4611 29.9731 40.4611 29.1835V17.4356C40.4637 15.391 40.4637 9.17255 32.0393 9.17255ZM35.4845 22.5273C35.4845 24.6486 35.0282 26.6126 31.7193 26.6126H31.0778C30.0317 26.6126 28.2754 26.3322 28.2754 24.4516C28.2754 22.6953 29.3083 22.0102 31.96 22.0102H35.4845V22.5273Z" fill="#1991C0"/>
<path d="M103.771 7.02612C101.98 7.02612 100.68 8.32616 100.68 10.1168C100.68 11.9075 101.98 13.2076 103.771 13.2076C105.586 13.2076 106.903 11.9075 106.903 10.1168C106.903 8.32748 105.584 7.02612 103.771 7.02612Z" fill="#1991C0"/>
<path d="M105.014 15.2852H102.569C101.767 15.2852 101.162 15.9068 101.162 16.732V29.1809C101.162 29.9704 101.779 30.588 102.569 30.588H105.014C105.804 30.588 106.421 29.9691 106.421 29.1809V16.732C106.421 15.9081 105.816 15.2852 105.014 15.2852Z" fill="#1991C0"/>
<path d="M119.746 13.8305C121.722 13.8305 122.966 14.8779 123.445 16.9516C123.6 17.5679 124.033 17.921 124.636 17.921H127.364C128.037 17.921 128.49 17.4687 128.49 16.7942C128.49 16.6673 128.466 16.5443 128.439 16.3895C128.428 16.3313 128.416 16.2665 128.398 16.166C127.428 11.9181 124.032 9.17389 119.746 9.17389C114.539 9.17389 110.761 13.2221 110.761 18.8005V21.4058C110.761 27.0503 114.472 30.9927 119.785 30.9927C124.812 30.9927 127.776 27.4206 128.395 24.1302C128.445 23.9292 128.449 23.6647 128.449 23.4108C128.449 22.7455 127.965 22.2443 127.323 22.2443H124.556C123.974 22.2443 123.519 22.6331 123.401 23.2243C122.932 25.3165 121.749 26.3335 119.784 26.3335C117.388 26.3335 115.899 24.6301 115.899 21.8872V18.2768C115.9 15.5339 117.375 13.8305 119.746 13.8305Z" fill="#1991C0"/>
<path d="M141.295 9.17255C135.934 9.17255 132.19 13.1308 132.19 18.7991V21.4045C132.19 27.049 135.934 30.9914 141.295 30.9914C146.656 30.9914 150.401 27.049 150.401 21.4045V18.7991C150.401 13.1308 146.656 9.17255 141.295 9.17255ZM145.1 21.8846C145.1 24.6698 143.678 26.3309 141.295 26.3309C138.924 26.3309 137.449 24.6275 137.449 21.8846V18.2767C137.449 15.5338 138.922 13.8304 141.295 13.8304C143.678 13.8304 145.1 15.4928 145.1 18.2767V21.8846Z" fill="#1991C0"/>
<path d="M158.218 1.55487H155.772C154.971 1.55487 154.365 2.17645 154.365 3.0017V29.1822C154.365 29.9717 154.984 30.5894 155.772 30.5894H158.218C159.007 30.5894 159.625 29.9717 159.625 29.1822V3.0017C159.625 2.17645 159.019 1.55487 158.218 1.55487Z" fill="#1991C0"/>
<path d="M171.649 9.17255C165.033 9.17255 164.133 13.5064 163.841 14.9123C163.803 15.0657 163.746 15.3606 163.746 15.5114C163.746 16.211 164.271 16.7188 164.993 16.7188H167.519C167.928 16.7188 168.473 16.5495 168.741 15.7454C168.746 15.7309 168.75 15.7164 168.753 15.7018C169 14.6425 169.371 13.8318 171.648 13.8318C174.061 13.8318 175.092 14.8739 175.092 17.3153V17.8734H171.447C165.777 17.8734 162.903 20.0873 162.903 24.4516C162.903 28.5461 165.498 30.9914 169.844 30.9914H170.485C172.363 30.9914 174.013 30.3764 175.098 29.3237C175.167 30.0445 175.757 30.5907 176.499 30.5907H178.664C179.453 30.5907 180.071 29.9731 180.071 29.1835V17.4356C180.072 15.391 180.072 9.17255 171.649 9.17255ZM175.093 22.5273C175.093 24.6486 174.637 26.6126 171.328 26.6126H170.686C169.64 26.6126 167.884 26.3322 167.884 24.4516C167.884 22.6953 168.917 22.0102 171.569 22.0102H175.093V22.5273V22.5273Z" fill="#1991C0"/>
<path d="M192.696 17.7199C190.19 17.1499 188.653 16.7294 188.653 15.3103C188.653 13.9217 190.178 13.6294 191.455 13.6294C193.812 13.6294 194.383 14.6782 194.768 15.756C194.945 16.2427 195.185 16.7175 195.986 16.7175H198.472C199.115 16.7175 199.611 16.2572 199.677 15.5986C199.679 15.5828 199.68 15.5656 199.68 15.5497C199.68 15.3143 199.636 15.0207 199.582 14.8593C199.11 13.1493 197.389 9.1712 191.617 9.1712C186.644 9.1712 183.554 11.6007 183.554 15.51C183.554 20.6731 187.882 21.6121 191.041 22.2985C193.459 22.8235 194.941 23.2097 194.941 24.4912C194.941 25.3667 194.605 26.5319 191.697 26.5319C189.721 26.5319 188.517 25.7503 188.117 24.2095C188.115 24.1989 188.111 24.1884 188.108 24.1778C187.902 23.5588 187.49 23.2454 186.886 23.2454H184.4C183.742 23.2454 183.261 23.6924 183.234 24.3166C183.191 24.5587 183.234 24.8311 183.282 25.0321C183.779 28.0025 186.558 30.9927 191.656 30.9927C196.958 30.9927 200 28.5804 200 24.3735C200 19.3797 195.95 18.4592 192.696 17.7199Z" fill="#1991C0"/>
<path d="M66.1706 35.4258C64.3112 35.4258 62.7559 34.213 62.7559 28.2313V18.7978C62.7559 12.6798 59.9191 9.1712 54.9742 9.1712C52.8291 9.1712 51.1945 9.76105 49.9262 11.0082C49.9196 10.1895 49.3178 9.57193 48.519 9.57193H46.0737C45.2723 9.57193 44.6665 10.1935 44.6665 11.0188V29.1809C44.6665 29.9704 45.2855 30.588 46.0737 30.588H48.519C49.3086 30.588 49.9262 29.9704 49.9262 29.1809V18.2767C49.9262 15.4928 51.3333 13.8304 53.6914 13.8304C56.0732 13.8304 57.4963 15.4928 57.4963 18.2767V28.2313C57.4963 29.567 56.753 40.9803 66.373 40.9803C67.8053 40.9803 69.6462 40.4368 69.6462 37.8909C69.6462 35.9918 68.0288 35.4258 66.1706 35.4258Z" fill="#1991C0"/>
<path d="M94.9723 1.55491H92.6473C91.8459 1.55491 91.2402 2.17649 91.2402 3.00174V20.4999L80.4419 2.56531C80.1813 2.05879 79.6179 1.55359 78.9355 1.55359H75.8488C75.0473 1.55359 74.4416 2.17517 74.4416 3.00042V18.2186C74.4416 24.1025 72.881 25.2954 71.052 25.2954C69.223 25.2954 67.6333 25.8522 67.6333 27.7209C67.6333 30.2257 69.4451 30.76 70.8536 30.76C80.3149 30.76 79.6206 19.5358 79.6206 18.2199V10.6327L90.9069 29.2695C91.629 30.4876 92.2215 30.5894 92.7677 30.5894H94.9723C95.7976 30.5894 96.4192 29.9837 96.4192 29.1823V3.00174C96.4192 2.17649 95.7963 1.55491 94.9723 1.55491Z" fill="#1991C0"/>
<path d="M168.527 6.64127C168.655 6.66244 168.786 6.67169 168.92 6.66773C170.36 6.62673 171.767 6.33577 173.101 5.80148C174.436 5.26718 175.655 4.50674 176.725 3.5413C177.56 2.79011 177.626 1.50463 176.873 0.671442C176.122 -0.161742 174.837 -0.229191 174.003 0.52332C173.291 1.16606 172.479 1.67259 171.591 2.02834C170.704 2.3841 169.766 2.57851 168.806 2.60496C167.683 2.6367 166.8 3.57172 166.831 4.69321C166.858 5.68113 167.587 6.48522 168.527 6.64127Z" fill="#1991C0"/>
</svg>
